# xmcd
#
# Track frame offsets: 
#        150
#        17465
#        35177
#        48170
#        65750
#        81417
#        99095
#        113272
#
# Disc length: 1785 seconds
#
# Revision: 0
# Processed by: cddbd v1.5.1PL0 Copyright (c) Steve Scherf et al.
# Submitted via: ExactAudioCopy v0.95a5
#
DISCID=5906f708
DTITLE=Sharon Bousquet - Live in Texas
DYEAR=2004
DGENRE=Country
TTITLE0=Like This One
TTITLE1=Not Enough Love
TTITLE2=Holy Water
TTITLE3=Work of Art
TTITLE4=Ocean of Desires
TTITLE5=All I Have to Do
TTITLE6=What's the Deal?
TTITLE7=Back to Me
EXTD=
EXTT0=
EXTT1=
EXTT2=
EXTT3=
EXTT4=
EXTT5=
EXTT6=
EXTT7=
PLAYORDER=
